<?xml version="1.0" encoding="UTF-8"?>
<svg xmlns="http://www.w3.org/2000/svg" xmlns:xlink="http://www.w3.org/1999/xlink" width="32px" height="32px" viewBox="0 0 32 32" version="1.1">
<g id="surface1">
<path style=" stroke:none;fill-rule:evenodd;fill:rgb(93.333333%,93.333333%,93.333333%);fill-opacity:1;" d="M 32 16 C 32 24.835938 24.835938 32 16 32 C 7.164062 32 0 24.835938 0 16 C 0 7.164062 7.164062 0 16 0 C 24.835938 0 32 7.164062 32 16 Z M 32 16 "/>
<path style=" stroke:none;fill-rule:nonzero;fill:rgb(21.568627%,23.137255%,25.098039%);fill-opacity:1;" d="M 6.535156 20.402344 L 6.535156 18.945312 C 10.085938 16.332031 11.125 15.433594 11.125 14.367188 C 11.125 13.613281 10.433594 13.238281 9.707031 13.238281 C 8.730469 13.238281 7.976562 13.628906 7.394531 14.238281 L 6.339844 13.015625 C 7.183594 12.039062 8.472656 11.597656 9.679688 11.597656 C 11.527344 11.597656 12.996094 12.640625 12.996094 14.367188 C 12.996094 15.851562 11.773438 17.140625 9.445312 18.777344 L 13.058594 18.777344 L 13.058594 20.402344 Z M 6.535156 20.402344 "/>
<path style=" stroke:none;fill-rule:nonzero;fill:rgb(21.568627%,23.137255%,25.098039%);fill-opacity:1;" d="M 18.195312 20.402344 L 18.195312 18.605469 L 14.050781 18.605469 L 14.050781 17.152344 L 17.496094 11.730469 L 20.042969 11.730469 L 20.042969 16.980469 L 21.160156 16.980469 L 21.160156 18.605469 L 20.042969 18.605469 L 20.042969 20.402344 Z M 18.195312 13.367188 L 15.855469 16.980469 L 18.195312 16.980469 Z M 18.195312 13.367188 "/>
<path style=" stroke:none;fill-rule:nonzero;fill:rgb(21.568627%,23.137255%,25.098039%);fill-opacity:1;" d="M 25.332031 16.527344 L 25.332031 19.164062 L 24.203125 19.164062 L 24.203125 16.527344 L 21.863281 16.527344 L 21.863281 15.5 L 24.203125 15.5 L 24.203125 12.964844 L 25.332031 12.964844 L 25.332031 15.5 L 27.660156 15.5 L 27.660156 16.527344 Z M 25.332031 16.527344 "/>
</g>
</svg>
